# xmcd
#
# Track frame offsets: 
#        150
#        17742
#        34900
#        51235
#        67305
#        80182
#        94781
#        109883
#        129113
#        141882
#        158590
#        177848
#
# Disc length: 2580 seconds
#
# Revision: 1
# Processed by: cddbd v1.5.2PL0 Copyright (c) Steve Scherf et al.
# Submitted via: ExactAudioCopy v1.0b3
#
DISCID=a40a120c
DTITLE=Ruthie And The Wranglers - Americana Express
DYEAR=2009
DGENRE=Rockabilly
TTITLE0=In The Tank
TTITLE1=You Wanna Give Me A Lift
TTITLE2=I Got A Rocket In My Pocket
TTITLE3=If I Could Turn Back Time
TTITLE4=Ka-Ching
TTITLE5=Life And Death And Hope And Dreams
TTITLE6=Not To Love You
TTITLE7=Repo Man
TTITLE8=I'm So Sad
TTITLE9=All The Honky Tonks Are Closin' Down
TTITLE10=SurfTango
TTITLE11=The Last Word In Love
EXTD=
EXTT0=
EXTT1=
EXTT2=
EXTT3=
EXTT4=
EXTT5=
EXTT6=
EXTT7=
EXTT8=
EXTT9=
EXTT10=
EXTT11=
PLAYORDER=
